{
  "accessors": [
    {
      "bufferView": 2,
      "componentType": 5126,
      "count": 65532,
      "max": [
        0.6138302087783813,
        0.7154679298400879,
        0.2141016572713852
      ],
      "min": [
        -0.6525571942329407,
        -0.7271281480789185,
        -0.009662129916250706
      ],
      "type": "VEC3"
    },
    {
      "bufferView": 2,
      "byteOffset": 786384,
      "componentType": 5126,
      "count": 65532,
      "max": [
        1.0,
        1.0,
        1.0
      ],
      "min": [
        -1.0,
        -1.0,
        -1.0
      ],
      "type": "VEC3"
    },
    {
      "bufferView": 3,
      "componentType": 5126,
      "count": 65532,
      "max": [
        1.0,
        1.0,
        1.0,
        1.0
      ],
      "min": [
        -1.0,
        -1.0,
        -1.0,
        1.0
      ],
      "type": "VEC4"
    },
    {
      "bufferView": 1,
      "componentType": 5126,
      "count": 65532,
      "max": [
        0.938920259475708,
        0.9837749600410461
      ],
      "min": [
        0.02971675992012024,
        0.010747194290161133
      ],
      "type": "VEC2"
    },
    {
      "bufferView": 1,
      "byteOffset": 524256,
      "componentType": 5126,
      "count": 65532,
      "max": [
        0.938920259475708,
        0.9837749600410461
      ],
      "min": [
        0.02971675992012024,
        0.010747194290161133
      ],
      "type": "VEC2"
    },
    {
      "bufferView": 1,
      "byteOffset": 1048512,
      "componentType": 5126,
      "count": 65532,
      "max": [
        0.938920259475708,
        0.9837749600410461
      ],
      "min": [
        0.02971675992012024,
        0.010747194290161133
      ],
      "type": "VEC2"
    },
    {
      "bufferView": 0,
      "componentType": 5125,
      "count": 225270,
      "type": "SCALAR"
    },
    {
      "bufferView": 2,
      "byteOffset": 1572768,
      "componentType": 5126,
      "count": 63331,
      "max": [
        0.5583524703979492,
        0.6324881315231323,
        0.040088340640068054
      ],
      "min": [
        -0.6047515869140625,
        -0.6442040205001831,
        0.0013961404329165816
      ],
      "type": "VEC3"
    },
    {
      "bufferView": 2,
      "byteOffset": 2332740,
      "componentType": 5126,
      "count": 63331,
      "max": [
        1.0,
        1.0,
        1.0
      ],
      "min": [
        -1.0,
        -1.0,
        -1.0
      ],
      "type": "VEC3"
    },
    {
      "bufferView": 3,
      "byteOffset": 1048512,
      "componentType": 5126,
      "count": 63331,
      "max": [
        1.0,
        1.0,
        1.0,
        1.0
      ],
      "min": [
        -1.0,
        -1.0,
        -1.0,
        1.0
      ],
      "type": "VEC4"
    },
    {
      "bufferView": 1,
      "byteOffset": 1572768,
      "componentType": 5126,
      "count": 63331,
      "max": [
        0.938920259475708,
        0.9098434448242188
      ],
      "min": [
        0.9270110130310059,
        0.12970608472824097
      ],
      "type": "VEC2"
    },
    {
      "bufferView": 1,
      "byteOffset": 2079416,
      "componentType": 5126,
      "count": 63331,
      "max": [
        0.938920259475708,
        0.9098434448242188
      ],
      "min": [
        0.9270110130310059,
        0.12970608472824097
      ],
      "type": "VEC2"
    },
    {
      "bufferView": 1,
      "byteOffset": 2586064,
      "componentType": 5126,
      "count": 63331,
      "max": [
        0.938920259475708,
        0.9098434448242188
      ],
      "min": [
        0.9270110130310059,
        0.12970608472824097
      ],
      "type": "VEC2"
    },
    {
      "bufferView": 0,
      "byteOffset": 901080,
      "componentType": 5125,
      "count": 229980,
      "type": "SCALAR"
    }
  ],
  "asset": {
    "extras": {
      "author": "Rizki Achmad (https://sketchfab.com/rizkiachmad)",
      "license": "CC-BY-4.0 (http://creativecommons.org/licenses/by/4.0/)",
      "source": "https://sketchfab.com/3d-models/simple-motherboard-d901a7a43f1f48efb81be57822c4496a",
      "title": "Simple Motherboard"
    },
    "generator": "Sketchfab-16.62.0",
    "version": "2.0"
  },
  "bufferViews": [
    {
      "buffer": 0,
      "byteLength": 1821000,
      "name": "floatBufferViews",
      "target": 34963
    },
    {
      "buffer": 0,
      "byteLength": 3092712,
      "byteOffset": 1821000,
      "byteStride": 8,
      "name": "floatBufferViews",
      "target": 34962
    },
    {
      "buffer": 0,
      "byteLength": 3092712,
      "byteOffset": 4913712,
      "byteStride": 12,
      "name": "floatBufferViews",
      "target": 34962
    },
    {
      "buffer": 0,
      "byteLength": 2061808,
      "byteOffset": 8006424,
      "byteStride": 16,
      "name": "floatBufferViews",
      "target": 34962
    }
  ],
  "buffers": [
    {
      "byteLength": 10068232,
      "uri": "scene.bin"
    }
  ],
  "images": [
    {
      "uri": "textures/Texture_Motherboard_baseColor.png"
    },
    {
      "uri": "textures/Texture_Motherboard_metallicRoughness.png"
    },
    {
      "uri": "textures/Texture_Motherboard_normal.png"
    }
  ],
  "materials": [
    {
      "doubleSided": true,
      "name": "Texture_Motherboard",
      "normalTexture": {
        "index": 2
      },
      "pbrMetallicRoughness": {
        "baseColorTexture": {
          "index": 0
        },
        "metallicRoughnessTexture": {
          "index": 1
        }
      }
    }
  ],
  "meshes": [
    {
      "name": "Motherboard_Texture Motherboard_0",
      "primitives": [
        {
          "attributes": {
            "NORMAL": 1,
            "POSITION": 0,
            "TANGENT": 2,
            "TEXCOORD_0": 3,
            "TEXCOORD_1": 4,
            "TEXCOORD_2": 5
          },
          "indices": 6,
          "material": 0,
          "mode": 4
        }
      ]
    },
    {
      "name": "Motherboard_Texture Motherboard_0",
      "primitives": [
        {
          "attributes": {
            "NORMAL": 8,
            "POSITION": 7,
            "TANGENT": 9,
            "TEXCOORD_0": 10,
            "TEXCOORD_1": 11,
            "TEXCOORD_2": 12
          },
          "indices": 13,
          "material": 0,
          "mode": 4
        }
      ]
    }
  ],
  "nodes": [
    {
      "children": [
        1
      ],
      "matrix": [
        1.0,
        0.0,
        0.0,
        0.0,
        0.0,
        2.220446049250313e-16,
        -1.0,
        0.0,
        0.0,
        1.0,
        2.220446049250313e-16,
        0.0,
        0.0,
        0.0,
        0.0,
        1.0
      ],
      "name": "Sketchfab_model"
    },
    {
      "children": [
        2
      ],
      "matrix": [
        0.009999999776482582,
        0.0,
        0.0,
        0.0,
        0.0,
        0.0,
        0.009999999776482582,
        0.0,
        0.0,
        -0.009999999776482582,
        0.0,
        0.0,
        0.0,
        0.0,
        0.0,
        1.0
      ],
      "name": "973c75962973442294c9936da233080b.fbx"
    },
    {
      "children": [
        3
      ],
      "name": "RootNode"
    },
    {
      "children": [
        4,
        5
      ],
      "matrix": [
        100.0,
        0.0,
        0.0,
        0.0,
        0.0,
        -1.629206793918314e-05,
        -99.99999999999868,
        0.0,
        0.0,
        99.99999999999868,
        -1.629206793918314e-05,
        0.0,
        0.0,
        0.0,
        0.0,
        1.0
      ],
      "name": "Motherboard"
    },
    {
      "mesh": 0,
      "name": "Motherboard_Texture Motherboard_0"
    },
    {
      "mesh": 1,
      "name": "Motherboard_Texture Motherboard_0"
    }
  ],
  "samplers": [
    {
      "magFilter": 9729,
      "minFilter": 9987,
      "wrapS": 10497,
      "wrapT": 10497
    }
  ],
  "scene": 0,
  "scenes": [
    {
      "name": "Sketchfab_Scene",
      "nodes": [
        0
      ]
    }
  ],
  "textures": [
    {
      "sampler": 0,
      "source": 0
    },
    {
      "sampler": 0,
      "source": 1
    },
    {
      "sampler": 0,
      "source": 2
    }
  ]
}
